# xmcd CD database file
# Generated: Thu Jan 8 11:29:15 2004 by KSCD
# 
# Track frame offsets:
#       150
#       9414
#       20424
#       31771
#       47785
#       59610
#       70572
#       82106
#       94321
#       109238
#       123102
#       133314
#       155679
#       165971
#       183803
#       196210
#       208119
#       218224
#       234511
#       244848
#       260205
#       271712
#       283811
#       296756
#
# Disc length: 4123 seconds
#
# Revision: 1
# Processed by: cddbd v1.4PL0 Copyright (c) Steve Scherf et al.
# Submitted via: Kscd 1.3.3
#
DISCID=61101918
DTITLE=ralph stanley 11 - stanley blues
DYEAR=1900
DGENRE=
TTITLE0=stanley blues
TTITLE1=
TTITLE2=
TTITLE3=
TTITLE4=
TTITLE5=
TTITLE6=
TTITLE7=
TTITLE8=
TTITLE9=
TTITLE10=
TTITLE11=
TTITLE12=
TTITLE13=
TTITLE14=
TTITLE15=
TTITLE16=
TTITLE17=
TTITLE18=
TTITLE19=
TTITLE20=
TTITLE21=
TTITLE22=
TTITLE23=
EXTD=
EXTT0=
EXTT1=
EXTT2=
EXTT3=
EXTT4=
EXTT5=
EXTT6=
EXTT7=
EXTT8=
EXTT9=
EXTT10=
EXTT11=
EXTT12=
EXTT13=
EXTT14=
EXTT15=
EXTT16=
EXTT17=
EXTT18=
EXTT19=
EXTT20=
EXTT21=
EXTT22=
EXTT23=
PLAYORDER=
